<svg xmlns="http://www.w3.org/2000/svg" xmlns:xlink="http://www.w3.org/1999/xlink" width="2000" zoomAndPan="magnify" viewBox="0 0 1500 1499.999933" height="2000" preserveAspectRatio="xMidYMid meet" version="1.0"><defs><g/><clipPath id="270a22b4d2"><rect x="0" width="946" y="0" height="439"/></clipPath><clipPath id="47cd47809f"><rect x="0" width="280" y="0" height="373"/></clipPath><clipPath id="9ac7ae6b9b"><path d="M 982 0.960938 L 1395.359375 0.960938 L 1395.359375 558.238281 L 982 558.238281 Z M 982 0.960938 " clip-rule="nonzero"/></clipPath><clipPath id="aa1fc4a16f"><rect x="0" width="414" y="0" height="559"/></clipPath><clipPath id="a9ee479c47"><rect x="0" width="1396" y="0" height="559"/></clipPath></defs><g transform="matrix(1, 0, 0, 1, 54, 468)"><g clip-path="url(#a9ee479c47)"><g transform="matrix(1, 0, 0, 1, -0.000000000000007105, 114)"><g clip-path="url(#270a22b4d2)"><g fill="#970c10" fill-opacity="1"><g transform="translate(0.0666278, 343.833966)"><g><path d="M 12.25 0 L 12.25 -3.21875 L 16.4375 -3.21875 C 34.050781 -3.21875 42.859375 -10.953125 42.859375 -26.421875 L 42.859375 -204.9375 C 42.859375 -219.539062 34.050781 -226.84375 16.4375 -226.84375 L 12.25 -226.84375 L 12.25 -230.0625 L 102.78125 -230.0625 C 129.851562 -230.0625 149.832031 -224.046875 162.71875 -212.015625 C 175.601562 -199.984375 182.046875 -183.550781 182.046875 -162.71875 C 182.046875 -150.039062 179.304688 -138.117188 173.828125 -126.953125 C 168.359375 -115.785156 159.285156 -106.765625 146.609375 -99.890625 C 133.929688 -93.015625 116.960938 -89.578125 95.703125 -89.578125 L 75.40625 -89.578125 L 75.40625 -26.421875 C 75.40625 -10.953125 84.210938 -3.21875 101.828125 -3.21875 L 106.015625 -3.21875 L 106.015625 0 Z M 75.40625 -92.796875 L 92.484375 -92.796875 C 112.023438 -92.796875 126.035156 -98.054688 134.515625 -108.578125 C 143.003906 -119.109375 147.25 -136.726562 147.25 -161.4375 C 147.25 -184.84375 143.4375 -201.59375 135.8125 -211.6875 C 128.1875 -221.789062 115.351562 -226.84375 97.3125 -226.84375 L 75.40625 -226.84375 Z M 75.40625 -92.796875 "/></g></g></g><g fill="#970c10" fill-opacity="1"><g transform="translate(194.684116, 343.833966)"><g><path d="M 91.1875 3.21875 C 72.070312 3.21875 57.894531 -1.773438 48.65625 -11.765625 C 39.414062 -21.753906 34.796875 -37.8125 34.796875 -59.9375 L 34.796875 -140.484375 C 34.796875 -151.441406 32.863281 -159.015625 29 -163.203125 C 25.132812 -167.390625 18.257812 -169.484375 8.375 -169.484375 L 7.40625 -169.484375 L 7.40625 -172.703125 L 65.09375 -172.703125 L 65.09375 -58.328125 C 65.09375 -37.910156 67.347656 -23.296875 71.859375 -14.484375 C 76.367188 -5.679688 84.53125 -1.28125 96.34375 -1.28125 C 110.738281 -1.28125 121.53125 -6.921875 128.71875 -18.203125 C 135.914062 -29.484375 139.515625 -45.539062 139.515625 -66.375 L 139.515625 -140.484375 C 139.515625 -151.441406 137.632812 -159.015625 133.875 -163.203125 C 130.125 -167.390625 123.195312 -169.484375 113.09375 -169.484375 L 112.125 -169.484375 L 112.125 -172.703125 L 169.8125 -172.703125 L 169.8125 -31.90625 C 169.8125 -20.945312 171.691406 -13.425781 175.453125 -9.34375 C 179.210938 -5.257812 186.140625 -3.21875 196.234375 -3.21875 L 197.203125 -3.21875 L 197.203125 0 L 141.78125 0 L 141.78125 -44.140625 L 141.125 -44.140625 C 139.40625 -33.179688 136.664062 -24.535156 132.90625 -18.203125 C 129.15625 -11.867188 124.863281 -7.195312 120.03125 -4.1875 C 115.195312 -1.175781 110.253906 0.804688 105.203125 1.765625 C 100.148438 2.734375 95.476562 3.21875 91.1875 3.21875 Z M 91.1875 3.21875 "/></g></g></g><g fill="#970c10" fill-opacity="1"><g transform="translate(399.290329, 343.833966)"><g><path d="M 7.40625 0 L 7.40625 -3.21875 L 11.59375 -3.21875 C 21.050781 -3.21875 27.816406 -5.148438 31.890625 -9.015625 C 35.972656 -12.890625 38.015625 -19.226562 38.015625 -28.03125 L 38.015625 -144.359375 C 38.015625 -153.378906 35.972656 -159.820312 31.890625 -163.6875 C 27.816406 -167.550781 21.050781 -169.484375 11.59375 -169.484375 L 10.640625 -169.484375 L 10.640625 -172.703125 L 67.984375 -172.703125 L 67.984375 -140.484375 L 68.625 -140.484375 C 70.132812 -146.066406 72.390625 -151.539062 75.390625 -156.90625 C 78.398438 -162.28125 82.910156 -166.796875 88.921875 -170.453125 C 94.941406 -174.109375 103.21875 -175.9375 113.75 -175.9375 C 124.269531 -175.9375 132.429688 -173.835938 138.234375 -169.640625 C 144.035156 -165.453125 146.9375 -159.601562 146.9375 -152.09375 C 146.9375 -145.644531 144.625 -140.269531 140 -135.96875 C 135.382812 -131.675781 127.707031 -129.53125 116.96875 -129.53125 C 116.96875 -142.851562 114.710938 -152.035156 110.203125 -157.078125 C 105.691406 -162.128906 100.640625 -164.65625 95.046875 -164.65625 C 88.816406 -164.65625 83.875 -162.453125 80.21875 -158.046875 C 76.570312 -153.640625 73.890625 -147.945312 72.171875 -140.96875 C 70.453125 -133.988281 69.378906 -126.789062 68.953125 -119.375 C 68.523438 -111.96875 68.3125 -105.148438 68.3125 -98.921875 L 68.3125 -29.640625 C 68.3125 -20.191406 70.347656 -13.425781 74.421875 -9.34375 C 78.503906 -5.257812 85.273438 -3.21875 94.734375 -3.21875 L 98.921875 -3.21875 L 98.921875 0 Z M 7.40625 0 "/></g></g></g><g fill="#970c10" fill-opacity="1"><g transform="translate(551.053358, 343.833966)"><g><path d="M 51.5625 -203.640625 C 47.476562 -203.640625 44.09375 -204.984375 41.40625 -207.671875 C 38.71875 -210.359375 37.375 -215.03125 37.375 -221.6875 C 37.375 -228.5625 38.71875 -233.285156 41.40625 -235.859375 C 44.09375 -238.441406 47.476562 -239.734375 51.5625 -239.734375 C 55.425781 -239.734375 58.753906 -238.441406 61.546875 -235.859375 C 64.335938 -233.285156 65.734375 -228.5625 65.734375 -221.6875 C 65.734375 -215.03125 64.335938 -210.359375 61.546875 -207.671875 C 58.753906 -204.984375 55.425781 -203.640625 51.5625 -203.640625 Z M 7.40625 0 L 7.40625 -3.21875 L 11.59375 -3.21875 C 21.050781 -3.21875 27.816406 -5.148438 31.890625 -9.015625 C 35.972656 -12.890625 38.015625 -19.226562 38.015625 -28.03125 L 38.015625 -144.359375 C 38.015625 -153.378906 35.972656 -159.820312 31.890625 -163.6875 C 27.816406 -167.550781 21.050781 -169.484375 11.59375 -169.484375 L 10.640625 -169.484375 L 10.640625 -172.703125 L 68.3125 -172.703125 L 68.3125 -29.640625 C 68.3125 -20.191406 70.347656 -13.425781 74.421875 -9.34375 C 78.503906 -5.257812 85.273438 -3.21875 94.734375 -3.21875 L 98.921875 -3.21875 L 98.921875 0 Z M 7.40625 0 "/></g></g></g><g fill="#970c10" fill-opacity="1"><g transform="translate(654.161968, 343.833966)"><g><path d="M 5.796875 0 L 5.796875 -3.21875 L 8.375 -3.21875 C 17.832031 -3.21875 24.597656 -5.148438 28.671875 -9.015625 C 32.753906 -12.890625 34.796875 -19.226562 34.796875 -28.03125 L 34.796875 -216.53125 C 34.796875 -225.550781 32.753906 -231.992188 28.671875 -235.859375 C 24.597656 -239.722656 17.832031 -241.65625 8.375 -241.65625 L 7.40625 -241.65625 L 7.40625 -244.890625 L 65.09375 -244.890625 L 65.09375 -111.484375 C 65.09375 -105.046875 65.09375 -98.65625 65.09375 -92.3125 C 65.09375 -85.976562 64.875 -79.585938 64.4375 -73.140625 L 119.21875 -134.359375 C 129.75 -146.179688 135.015625 -154.5625 135.015625 -159.5 C 135.015625 -163.144531 132.648438 -165.71875 127.921875 -167.21875 C 123.191406 -168.726562 115.890625 -169.484375 106.015625 -169.484375 L 106.015625 -172.703125 L 177.21875 -172.703125 L 177.21875 -169.484375 C 171.632812 -169.484375 166.800781 -168.945312 162.71875 -167.875 C 158.632812 -166.800781 154.015625 -164.222656 148.859375 -160.140625 C 143.703125 -156.054688 137.046875 -149.398438 128.890625 -140.171875 L 103.75 -111.8125 L 153.375 -35.4375 C 159.820312 -25.34375 165.082031 -18.039062 169.15625 -13.53125 C 173.238281 -9.019531 176.675781 -6.171875 179.46875 -4.984375 C 182.269531 -3.804688 185.066406 -3.21875 187.859375 -3.21875 L 188.8125 -3.21875 L 188.8125 0 L 174.640625 0 C 161.960938 0 152.078125 -1.71875 144.984375 -5.15625 C 137.898438 -8.59375 131.351562 -15.035156 125.34375 -24.484375 L 84.09375 -89.578125 L 65.09375 -68.3125 L 65.09375 -29.640625 C 65.09375 -20.191406 67.128906 -13.425781 71.203125 -9.34375 C 75.285156 -5.257812 82.054688 -3.21875 91.515625 -3.21875 L 92.484375 -3.21875 L 92.484375 0 Z M 5.796875 0 "/></g></g></g><g fill="#970c10" fill-opacity="1"><g transform="translate(842.657461, 343.833966)"><g><path d="M 51.5625 -203.640625 C 47.476562 -203.640625 44.09375 -204.984375 41.40625 -207.671875 C 38.71875 -210.359375 37.375 -215.03125 37.375 -221.6875 C 37.375 -228.5625 38.71875 -233.285156 41.40625 -235.859375 C 44.09375 -238.441406 47.476562 -239.734375 51.5625 -239.734375 C 55.425781 -239.734375 58.753906 -238.441406 61.546875 -235.859375 C 64.335938 -233.285156 65.734375 -228.5625 65.734375 -221.6875 C 65.734375 -215.03125 64.335938 -210.359375 61.546875 -207.671875 C 58.753906 -204.984375 55.425781 -203.640625 51.5625 -203.640625 Z M 7.40625 0 L 7.40625 -3.21875 L 11.59375 -3.21875 C 21.050781 -3.21875 27.816406 -5.148438 31.890625 -9.015625 C 35.972656 -12.890625 38.015625 -19.226562 38.015625 -28.03125 L 38.015625 -144.359375 C 38.015625 -153.378906 35.972656 -159.820312 31.890625 -163.6875 C 27.816406 -167.550781 21.050781 -169.484375 11.59375 -169.484375 L 10.640625 -169.484375 L 10.640625 -172.703125 L 68.3125 -172.703125 L 68.3125 -29.640625 C 68.3125 -20.191406 70.347656 -13.425781 74.421875 -9.34375 C 78.503906 -5.257812 85.273438 -3.21875 94.734375 -3.21875 L 98.921875 -3.21875 L 98.921875 0 Z M 7.40625 0 "/></g></g></g></g></g><g transform="matrix(1, 0, 0, 1, 1027, 107)"><g clip-path="url(#47cd47809f)"><g fill="#970c10" fill-opacity="1"><g transform="translate(102.311415, 120.846463)"><g><path d="M 137.839844 -24.734375 C 134.226562 -26.65625 132.847656 -31.152344 134.707031 -34.65625 C 136.625 -38.269531 141.125 -39.648438 144.738281 -37.730469 C 148.242188 -35.871094 149.621094 -31.371094 147.703125 -27.757812 C 145.84375 -24.253906 141.34375 -22.875 137.839844 -24.734375 Z M 67.789062 -66.851562 C 64.0625 -68.828125 57.859375 -72.699219 54.824219 -74.890625 L 46.363281 -58.960938 C 49.421875 -57.625 54.851562 -55.03125 60.050781 -52.273438 L 112.707031 -24.320312 C 105.964844 -15.441406 94.894531 -4.953125 82.457031 0.46875 C 67.1875 7.132812 49.371094 10.132812 24.066406 3.507812 L 29.242188 23.492188 C 52.890625 27.789062 73.855469 24.582031 91.222656 16.417969 C 107.375 8.917969 121.53125 -6.019531 130.007812 -15.710938 L 132.714844 -18.621094 C 133.105469 -18.269531 133.671875 -17.96875 134.121094 -17.730469 C 141.46875 -13.832031 150.808594 -16.691406 154.707031 -24.039062 C 158.667969 -31.496094 155.804688 -40.835938 148.460938 -44.734375 C 141 -48.695312 131.660156 -45.832031 127.703125 -38.375 C 127.28125 -37.582031 127.035156 -36.847656 126.789062 -36.109375 C 124.121094 -37.089844 121.6875 -38.234375 120.105469 -39.074219 Z M 67.789062 -66.851562 "/></g></g></g><g fill="#970c10" fill-opacity="1"><g transform="translate(18.434282, 278.84026)"><g><path d="M 68.046875 -74.96875 C 67.0625 -72.304688 65.078125 -68.289062 63.9375 -66.140625 L 43.722656 -28.0625 C 41.921875 -24.671875 39.128906 -20.507812 37.878906 -18.417969 L 54.601562 -9.539062 C 55.753906 -12.261719 57.980469 -16.726562 59.480469 -19.550781 L 79.757812 -57.742188 C 81.675781 -61.359375 83.109375 -63.785156 84.65625 -66.152344 Z M 120.5625 -48.390625 C 119.335938 -44.988281 117.640625 -41.253906 115.242188 -36.734375 L 103.84375 -15.265625 C 94.488281 2.363281 88.519531 10.058594 76.335938 14.453125 C 65.542969 18.140625 53.773438 17.394531 41.09375 13.996094 L 46.359375 32.722656 C 55.988281 34.503906 70.679688 35.203125 82.515625 30.914062 C 95.796875 26.089844 106.0625 18.210938 118.957031 -6.082031 L 130.835938 -28.453125 C 133.234375 -32.972656 135.378906 -36.46875 137.285156 -39.515625 Z M 120.5625 -48.390625 "/></g></g></g></g></g><g clip-path="url(#9ac7ae6b9b)"><g transform="matrix(1, 0, 0, 1, 982, 0.000000000000113687)"><g clip-path="url(#aa1fc4a16f)"><g fill="#f8fafc" fill-opacity="1"><g transform="translate(0.321116, 438.004572)"><g><path d="M 124.925781 -295.726562 C 118.375 -309.246094 104.039062 -330.132812 89.703125 -344.878906 L 66.355469 -332.183594 C 79.460938 -317.027344 93.796875 -295.320312 99.941406 -281.390625 Z M 134.757812 -84.375 L 134.757812 -15.972656 L 63.078125 -15.972656 L 63.078125 -84.375 Z M 162.199219 -109.363281 L 36.042969 -109.363281 L 36.042969 28.261719 L 63.078125 28.261719 L 63.078125 9.421875 L 162.199219 9.421875 Z M 30.71875 -140.492188 L 168.753906 -140.492188 L 168.753906 -165.066406 L 30.71875 -165.066406 Z M 38.503906 -222 L 38.503906 -198.246094 L 160.972656 -198.246094 L 160.972656 -222 Z M 18.839844 -253.949219 L 181.859375 -253.949219 L 181.859375 -278.933594 L 18.839844 -278.933594 Z M 260.503906 -5.734375 C 238.386719 -5.734375 233.878906 -9.011719 233.878906 -24.984375 L 233.878906 -158.105469 L 336.6875 -158.105469 L 336.6875 -136.394531 L 366.589844 -136.394531 L 366.589844 -320.304688 L 198.652344 -320.304688 L 198.652344 -291.222656 L 336.6875 -291.222656 L 336.6875 -187.183594 L 203.980469 -187.183594 L 203.980469 -24.984375 C 203.980469 13.515625 216.265625 22.9375 258.046875 22.9375 L 338.328125 22.9375 C 378.464844 22.9375 387.886719 5.324219 392.394531 -61.03125 C 383.382812 -62.667969 371.09375 -67.992188 363.722656 -73.316406 C 361.265625 -16.382812 357.578125 -5.734375 336.277344 -5.734375 Z M 260.503906 -5.734375 "/></g></g></g></g></g></g><path fill="#970c10" d="M 1281.761719 387.296875 L 1346.375 322.683594 C 1347.898438 321.15625 1349.675781 320.394531 1351.710938 320.394531 C 1353.742188 320.394531 1355.523438 321.15625 1357.046875 322.683594 C 1358.570312 324.207031 1359.335938 326.019531 1359.335938 328.117188 C 1359.335938 330.21875 1358.570312 332.027344 1357.046875 333.546875 L 1287.097656 403.6875 C 1285.574219 405.210938 1283.792969 405.972656 1281.761719 405.972656 C 1279.726562 405.972656 1277.949219 405.210938 1276.425781 403.6875 L 1243.640625 370.902344 C 1242.117188 369.378906 1241.382812 367.570312 1241.445312 365.476562 C 1241.507812 363.382812 1242.300781 361.570312 1243.832031 360.039062 C 1245.363281 358.507812 1247.171875 357.746094 1249.265625 357.753906 C 1251.363281 357.757812 1253.171875 358.519531 1254.695312 360.039062 Z M 1281.761719 387.296875 " fill-opacity="1" fill-rule="nonzero"/></g></g></svg>