<svg xmlns="http://www.w3.org/2000/svg" xmlns:xlink="http://www.w3.org/1999/xlink" width="2000" zoomAndPan="magnify" viewBox="0 0 1500 1499.999933" height="2000" preserveAspectRatio="xMidYMid meet" version="1.0"><defs><g/><clipPath id="2f423ef4ea"><rect x="0" width="857" y="0" height="1144"/></clipPath><clipPath id="45a8ab2c0e"><rect x="0" width="1269" y="0" height="1500"/></clipPath></defs><g transform="matrix(1, 0, 0, 1, 231, 214)"><g clip-path="url(#2f423ef4ea)"><g fill="#970c10" fill-opacity="1"><g transform="translate(312.36804, 371.092611)"><g><path d="M 423.375 -75.972656 C 412.269531 -81.871094 408.039062 -95.683594 413.75 -106.441406 C 419.644531 -117.550781 433.460938 -121.78125 444.566406 -115.886719 C 455.324219 -110.175781 459.558594 -96.359375 453.660156 -85.253906 C 447.949219 -74.496094 434.136719 -70.261719 423.375 -75.972656 Z M 208.214844 -205.328125 C 196.761719 -211.40625 177.714844 -223.296875 168.386719 -230.03125 L 142.410156 -181.09375 C 151.800781 -176.996094 168.480469 -169.03125 184.445312 -160.554688 L 346.179688 -74.695312 C 325.472656 -47.425781 291.464844 -15.210938 253.265625 1.4375 C 206.359375 21.910156 151.640625 31.125 73.917969 10.769531 L 89.820312 72.152344 C 162.449219 85.351562 226.847656 75.496094 280.195312 50.433594 C 329.800781 27.386719 373.28125 -18.484375 399.320312 -48.261719 L 407.625 -57.199219 C 408.828125 -56.113281 410.566406 -55.191406 411.953125 -54.457031 C 434.511719 -42.480469 463.203125 -51.269531 475.179688 -73.832031 C 487.339844 -96.738281 478.546875 -125.429688 455.988281 -137.40625 C 433.082031 -149.566406 404.390625 -140.773438 392.230469 -117.867188 C 390.941406 -115.4375 390.183594 -113.171875 389.425781 -110.902344 C 381.238281 -113.917969 373.765625 -117.4375 368.90625 -120.019531 Z M 208.214844 -205.328125 "/></g></g></g><g fill="#970c10" fill-opacity="1"><g transform="translate(54.741369, 856.366879)"><g><path d="M 209 -230.269531 C 205.988281 -222.082031 199.886719 -209.75 196.382812 -203.15625 L 134.292969 -86.195312 C 128.761719 -75.78125 120.1875 -62.984375 116.339844 -56.574219 L 167.707031 -29.304688 C 171.25 -37.65625 178.089844 -51.375 182.695312 -60.050781 L 244.972656 -177.359375 C 250.871094 -188.464844 255.269531 -195.917969 260.015625 -203.183594 Z M 370.308594 -148.636719 C 366.535156 -138.179688 361.335938 -126.707031 353.964844 -112.824219 L 318.957031 -46.882812 C 290.210938 7.257812 271.882812 30.894531 234.460938 44.394531 C 201.316406 55.714844 165.160156 53.425781 126.214844 42.984375 L 142.390625 100.507812 C 171.964844 105.976562 217.085938 108.128906 253.441406 94.957031 C 294.234375 80.132812 325.761719 55.941406 365.375 -18.679688 L 401.859375 -87.398438 C 409.230469 -101.28125 415.820312 -112.019531 421.671875 -121.367188 Z M 370.308594 -148.636719 "/></g></g></g></g></g><g transform="matrix(1, 0, 0, 1, 91, 0.000000000000112861)"><g clip-path="url(#45a8ab2c0e)"><g fill="#f8fafc" fill-opacity="1"><g transform="translate(0.885865, 1230.592887)"><g><path d="M 383.710938 -908.324219 C 363.582031 -949.839844 319.546875 -1014 275.515625 -1059.289062 L 203.804688 -1020.289062 C 244.066406 -973.742188 288.097656 -907.066406 306.96875 -864.289062 Z M 413.902344 -259.160156 L 413.902344 -49.066406 L 193.742188 -49.066406 L 193.742188 -259.160156 Z M 498.195312 -335.902344 L 110.710938 -335.902344 L 110.710938 86.804688 L 193.742188 86.804688 L 193.742188 28.933594 L 498.195312 28.933594 Z M 94.355469 -431.515625 L 518.324219 -431.515625 L 518.324219 -507 L 94.355469 -507 Z M 118.257812 -681.871094 L 118.257812 -608.902344 L 494.417969 -608.902344 L 494.417969 -681.871094 Z M 57.871094 -780 L 558.582031 -780 L 558.582031 -856.742188 L 57.871094 -856.742188 Z M 800.128906 -17.613281 C 732.195312 -17.613281 718.355469 -27.675781 718.355469 -76.742188 L 718.355469 -485.613281 L 1034.128906 -485.613281 L 1034.128906 -418.9375 L 1125.96875 -418.9375 L 1125.96875 -983.808594 L 610.160156 -983.808594 L 610.160156 -894.484375 L 1034.128906 -894.484375 L 1034.128906 -574.9375 L 626.515625 -574.9375 L 626.515625 -76.742188 C 626.515625 41.515625 664.257812 70.453125 792.582031 70.453125 L 1039.160156 70.453125 C 1162.453125 70.453125 1191.386719 16.355469 1205.226562 -187.453125 C 1177.550781 -192.484375 1139.808594 -208.839844 1117.160156 -225.195312 C 1109.613281 -50.324219 1098.289062 -17.613281 1032.871094 -17.613281 Z M 800.128906 -17.613281 "/></g></g></g></g></g><path fill="#970c10" d="M 1011.613281 1074.851562 L 1210.078125 876.386719 C 1214.761719 871.703125 1220.226562 869.363281 1226.46875 869.363281 C 1232.714844 869.363281 1238.179688 871.703125 1242.863281 876.386719 C 1247.546875 881.070312 1249.886719 886.636719 1249.886719 893.085938 C 1249.886719 899.53125 1247.546875 905.089844 1242.863281 909.757812 L 1028.007812 1125.199219 C 1023.324219 1129.882812 1017.859375 1132.222656 1011.613281 1132.222656 C 1005.371094 1132.222656 999.90625 1129.882812 995.222656 1125.199219 L 894.527344 1024.503906 C 889.84375 1019.820312 887.597656 1014.261719 887.78125 1007.832031 C 887.96875 1001.398438 890.414062 995.832031 895.113281 991.132812 C 899.8125 986.433594 905.378906 984.09375 911.808594 984.109375 C 918.242188 984.125 923.800781 986.464844 928.484375 991.132812 Z M 1011.613281 1074.851562 " fill-opacity="1" fill-rule="nonzero"/></svg>